<?xml version="1.0" encoding="utf-8"?>
<!-- Generator: Adobe Illustrator 22.0.1, SVG Export Plug-In . SVG Version: 6.00 Build 0)  -->
<svg version="1.1" id="Layer_1" xmlns="http://www.w3.org/2000/svg" xmlns:xlink="http://www.w3.org/1999/xlink" x="0px" y="0px"
	 viewBox="0 0 308.8 130.9" style="enable-background:new 0 0 308.8 130.9;" xml:space="preserve">
<g>
	<path d="M30.4,92.6h-6.8v-4.5h19.2v4.5H36v19.2h-5.6V92.6z"/>
	<path d="M46.7,88.1h15.5v4.5h-9.9v4.8h8.4v4.5h-8.4v5.5h10.3v4.5H46.7V88.1z"/>
	<path d="M66.4,100c0-7.9,5.4-12.4,11.7-12.4c3.2,0,5.8,1.4,7.5,3.1l-3,3.4c-1.2-1.1-2.6-1.9-4.4-1.9c-3.4,0-6.1,2.9-6.1,7.6
		c0,4.9,2.4,7.7,6,7.7c2,0,3.6-1,4.8-2.2l3,3.4c-2.1,2.3-4.8,3.5-8,3.5C71.6,112.2,66.4,108,66.4,100z"/>
	<path d="M89.6,88.1h5.6v9.1h8.6v-9.1h5.6v23.7h-5.6v-9.9h-8.6v9.9h-5.6V88.1z"/>
	<path d="M115.3,88.1h5.7l6.5,11.8l2.5,5.2h0.2c-0.3-2.5-0.7-5.8-0.7-8.6v-8.4h5.3v23.7h-5.7l-6.5-11.8l-2.5-5.2h-0.2
		c0.3,2.6,0.7,5.8,0.7,8.6v8.4h-5.3V88.1z"/>
	<path d="M139.4,99.8c0-7.7,4.6-12.2,11.3-12.2c6.7,0,11.3,4.5,11.3,12.2c0,7.7-4.6,12.4-11.3,12.4
		C143.9,112.2,139.4,107.6,139.4,99.8z M156.1,99.8c0-4.8-2.1-7.6-5.5-7.6s-5.5,2.8-5.5,7.6c0,4.8,2.1,7.8,5.5,7.8
		S156.1,104.6,156.1,99.8z"/>
	<path d="M166.6,88.1h5.6v19.2h9.8v4.5h-15.4V88.1z"/>
	<path d="M183.7,99.8c0-7.7,4.6-12.2,11.3-12.2c6.7,0,11.3,4.5,11.3,12.2c0,7.7-4.6,12.4-11.3,12.4
		C188.3,112.2,183.7,107.6,183.7,99.8z M200.5,99.8c0-4.8-2.1-7.6-5.5-7.6c-3.4,0-5.5,2.8-5.5,7.6c0,4.8,2.1,7.8,5.5,7.8
		C198.3,107.6,200.5,104.6,200.5,99.8z"/>
	<path d="M209.7,100c0-7.9,5.5-12.4,12.1-12.4c3.6,0,6.2,1.5,7.8,3.1l-3,3.4c-1.2-1.1-2.6-1.9-4.7-1.9c-3.8,0-6.5,2.9-6.5,7.6
		c0,4.9,2.3,7.7,7,7.7c1,0,2-0.2,2.6-0.7v-4.1h-4.1v-4.4h9.1v10.9c-1.7,1.6-4.7,2.9-8.2,2.9C215,112.2,209.7,108,209.7,100z"/>
	<path d="M235.1,88.1h5.6v23.7h-5.6V88.1z"/>
	<path d="M246.6,88.1h15.5v4.5h-9.9v4.8h8.4v4.5h-8.4v5.5h10.3v4.5h-15.9V88.1z"/>
	<path d="M265.8,108.8l3.2-3.7c1.8,1.5,4,2.5,6.1,2.5c2.3,0,3.5-0.9,3.5-2.3c0-1.5-1.4-2-3.6-2.8l-3.2-1.3c-2.6-1-5-3-5-6.5
		c0-3.9,3.7-7.1,8.8-7.1c2.9,0,5.8,1.1,8,3.1l-2.8,3.4c-1.6-1.2-3.2-1.9-5.1-1.9c-1.9,0-3.2,0.8-3.2,2.1c0,1.5,1.6,2,3.8,2.8
		l3.2,1.2c3,1.2,4.9,3.1,4.9,6.4c0,3.9-3.4,7.3-9.3,7.3C271.8,112.2,268.3,111,265.8,108.8z"/>
</g>
<rect x="91" y="19.1" width="15.7" height="14.6"/>
<rect x="91" y="41.7" width="15.7" height="37.4"/>
<rect x="113.6" y="19.1" width="15.5" height="60"/>
<polygon points="70.5,19.1 70.4,19.1 69.3,20.1 69.3,20.2 54.1,35.5 38.8,20.2 38.8,20.2 37.7,19.1 37.7,19.1 24.7,19.1 24.7,35.2 
	24.7,79.1 38.8,79.1 38.8,49.4 54,64.6 54.1,64.5 54.1,64.6 69.3,49.4 69.3,79.1 83.5,79.1 83.5,35.2 83.5,19.1 "/>
<rect x="136.2" y="19.1" width="36.9" height="15.1"/>
<rect x="136.2" y="41.5" width="36.9" height="15.1"/>
<rect x="136.2" y="64" width="36.9" height="15.1"/>
<polygon points="271.2,19.1 271.1,19.1 270.1,20.1 270.1,20.2 254.8,35.5 239.5,20.2 239.5,20.2 238.4,19.1 238.4,19.1 225.4,19.1 
	225.4,35.2 225.4,79.1 239.5,79.1 239.5,49.4 254.8,64.6 254.8,64.5 254.9,64.6 270.1,49.4 270.1,79.1 284.2,79.1 284.2,35.2 
	284.2,19.1 "/>
<path d="M203,19.1V64h-7.5V19.1h-15.2v41.3V64v3.1c0,6.6,5.4,12,12,12h13.9c6.6,0,12-5.4,12-12V64v-3.6V19.1H203z"/>
</svg>
