<?xml version="1.0" encoding="UTF-8"?>
<svg width="240px" height="35px" viewBox="0 0 240 35" version="1.1" xmlns="http://www.w3.org/2000/svg" xmlns:xlink="http://www.w3.org/1999/xlink">
    <!-- Generator: Sketch 50 (54983) - http://www.bohemiancoding.com/sketch -->
    <title>Group 18</title>
    <desc>Created with Sketch.</desc>
    <defs></defs>
    <g id="Cinnamon-web-desktop" stroke="none" stroke-width="1" fill="none" fill-rule="evenodd">
        <g id="desktop_unimod_detail" transform="translate(-37.000000, -31.000000)">
            <g id="Meni">
                <g id="Group-18" transform="translate(37.000000, 31.000000)">
                    <path d="M137.76086,32.0973113 C137.76086,32.556934 138.240198,32.928066 138.67524,32.928066 L142.751934,32.928066 C143.700033,32.928066 143.811107,32.422217 143.921521,31.6040094 L145.428959,20.3974057 C145.510281,19.7185377 145.649785,18.8864623 145.731107,18.2075943 C145.825653,17.4224057 145.99557,16.6979717 145.99557,15.8962736 C146.25276,16.0838208 147.044165,17.827217 147.244496,18.2221226 L154.312264,32.597217 C154.504661,32.9861792 154.704331,33.3711792 154.895405,33.7601415 C155.456066,34.9045755 156.381025,34.8068396 156.865653,33.8156132 L165.708628,16.0620283 C165.716562,16.3724057 165.821025,16.8690094 165.861355,17.156934 L167.867306,31.5214623 C167.981025,32.3614623 168.082182,32.928066 169.036893,32.928066 L173.02962,32.928066 C174.599868,32.928066 173.984992,31.1060849 173.764165,29.5357075 C173.570446,28.1641038 173.361521,26.7713679 173.147967,25.3317453 L169.821686,2.15117925 C169.770116,1.79985849 169.735074,1.33825472 169.619372,1.10712264 C169.263669,0.398537736 168.303669,0.608537736 167.124165,0.608537736 C166.432595,0.608537736 165.929455,2.08051887 165.460033,3.01825472 C165.237884,3.46136792 165.017058,3.90514151 164.794909,4.34759434 C164.563504,4.80787736 164.359868,5.30051887 164.129785,5.75948113 L157.391273,19.4689151 C157.050777,20.1491038 156.224331,21.5940094 156.060364,22.2933491 L152.539702,15.4254245 C152.29243,14.9314623 152.093421,14.5345755 151.845488,14.0406132 L147.411107,5.09382075 C147.301355,4.87127358 147.187636,4.6520283 147.076562,4.43014151 L145.690116,1.66117925 C145.05276,0.381367925 145.16119,0.608537736 142.917884,0.608537736 C142.191934,0.608537736 142.137058,1.29268868 142.039207,1.97419811 L138.877554,23.9911792 C138.753256,24.8358019 137.76086,31.4111792 137.76086,32.0973113" id="Fill-8" fill="#30343D"></path>
                    <path d="M73.1120661,1.84951887 L73.1120661,33.2550849 C73.1120661,34.5018774 74.0872727,34.9780094 74.8839669,34.1941415 C75.1305785,33.9504623 75.2204959,33.7781038 75.4618182,33.5251792 C75.6945455,33.2815 75.7970248,33.1157453 76.0456198,32.8615 C76.2757025,32.6244245 76.3795041,32.4514057 76.6267769,32.1965 C76.8581818,31.9600849 76.9613223,31.7864057 77.2092562,31.5315 L78.3742149,30.2028208 C78.6056198,29.9657453 78.7087603,29.792066 78.9560331,29.5384811 L85.9021488,21.6033868 C86.0482645,21.446217 86.0409917,21.427066 86.1593388,21.2791415 L89.0624793,17.9475377 C89.1847934,17.8115 89.2700826,17.7540472 89.3904132,17.6107453 L90.5553719,16.2814057 C90.6849587,16.1275377 90.6704132,16.1103679 90.8099174,15.9531981 L92.9084298,13.6471604 L92.9077686,31.262066 C92.9031405,31.9369717 92.9480992,32.7571604 93.9900826,32.7571604 L98.2327273,32.7571604 C98.6677686,32.7571604 99.1477686,32.3853679 99.1477686,31.9257453 L99.1477686,1.43414151 C99.1477686,0.326688679 97.5180165,0.603386792 96.4026446,0.603386792 C95.9841322,0.603386792 93.9709091,3.17093396 93.4287603,3.78046226 C93.3196694,3.9019717 93.246281,3.9515 93.1378512,4.07300943 C92.9996694,4.22951887 93.014876,4.24668868 92.8846281,4.4005566 L83.0578512,15.6890472 C82.7365289,16.1037642 79.5385124,19.7800849 79.2680992,19.9616887 C79.2680992,19.3554623 79.3672727,1.55036792 79.2138843,1.15546226 C79.1107438,0.893292453 78.7761983,0.603386792 78.4357025,0.603386792 L74.0264463,0.603386792 C73.3752066,0.603386792 73.1120661,1.17857547 73.1120661,1.84951887" id="Fill-10" fill="#03B6BC"></path>
                    <path d="M43.2502479,1.43420755 L43.2502479,31.9258113 C43.2502479,32.385434 43.7295868,32.7572264 44.1652893,32.7572264 L48.4066116,32.7572264 C49.2489256,32.7572264 49.4961983,32.2196792 49.4902479,31.3466604 L49.4889256,13.6472264 L50.6406612,14.9059057 C51.5484298,16.0384528 53.1940496,17.7276981 54.134876,18.8932642 L56.745124,21.8530755 C56.8938843,22.0194906 56.8905785,22.0577925 57.0380165,22.2242075 L59.6165289,25.1331698 C59.7765289,25.3042075 59.768595,25.3352453 59.9107438,25.5036415 L66.8945455,33.4829811 C67.2271074,33.8402453 67.6905785,34.5844906 68.2876033,34.5844906 C68.9619835,34.5844906 69.2852893,33.9716604 69.2852893,33.2551509 L69.2852893,1.84958491 C69.2852893,1.17864151 69.0221488,0.60345283 68.3709091,0.60345283 L63.9616529,0.60345283 C62.9745455,0.60345283 63.1292562,1.82250943 63.1299174,2.26496226 L63.1299174,19.9617547 C62.7907438,19.7345849 60.3642975,16.8758113 59.9497521,16.4095849 L59.157686,15.4546792 C59.0492562,15.3338302 58.9765289,15.2849623 58.8680992,15.1634528 L47.1947107,1.73137736 C46.9844628,1.46062264 46.846281,1.34439623 46.6618182,1.10071698 C46.1157025,0.38090566 45.6793388,0.60345283 44.0819835,0.60345283 C43.6634711,0.60345283 43.2502479,1.01618868 43.2502479,1.43420755" id="Fill-12" fill="#03B6BC"></path>
                    <path d="M213.963041,1.51741509 L213.963041,31.6761887 C213.963041,32.3266604 214.392793,32.7572264 215.045355,32.7572264 L219.286678,32.7572264 C220.360397,32.7572264 220.203041,31.6009057 220.201719,31.1782642 L220.201719,13.5640189 C220.447669,13.7284528 220.547504,13.9463774 220.761719,14.1676038 L221.926678,15.4969434 C222.714116,16.3052453 224.015934,17.9568491 224.839074,18.8193019 L226.004694,20.1486415 C226.249322,20.3943019 226.33395,20.5593962 226.586512,20.8129811 C227.611306,21.8411887 230.020562,24.8161887 231.243702,26.1303396 L234.738579,30.1183585 C234.885355,30.2755283 234.877421,30.2946792 234.99643,30.4426038 L237.324364,33.1006226 C237.649653,33.5047736 238.536264,34.5844906 239.000397,34.5844906 C239.488992,34.5844906 239.998744,34.1506226 239.998744,33.6705283 L239.998744,1.43420755 C239.998744,1.01618868 239.585521,0.60345283 239.167008,0.60345283 L234.758413,0.60345283 C233.862545,0.60345283 233.838744,1.56826415 233.84205,2.18109434 L233.842711,19.9617547 L232.782876,18.7776981 C232.566678,18.5445849 232.479405,18.3993019 232.241388,18.1556226 C231.35081,17.2423208 229.43081,14.7876981 228.541554,13.8750566 L227.713124,12.9584528 C226.464198,11.4759057 224.380231,9.19760377 223.208661,7.73618868 L217.897587,1.65873585 C216.798744,0.360433962 217.149157,0.60345283 214.712132,0.60345283 C214.46486,0.60345283 213.963041,1.02345283 213.963041,1.51741509" id="Fill-14" fill="#30343D"></path>
                    <path d="M182.853818,17.053717 C182.853818,11.3738113 187.160595,6.85815094 192.584066,6.58409434 C192.947041,6.56560377 192.864397,6.52069811 193.17514,6.5035283 C194.430678,6.43815094 196.255471,6.9380566 197.422413,7.40362264 L199.091835,8.31230189 C203.245223,11.1136226 204.808198,16.5874906 202.732165,21.2068302 C202.26605,22.244283 201.518281,23.3689057 200.718281,24.1798491 C199.922248,24.9855094 198.857124,25.7627736 197.811174,26.2600377 C194.071669,28.0410755 189.526876,27.4989057 186.44919,24.7609811 L185.207537,23.509566 C184.678612,22.8927736 184.097455,21.9378679 183.769521,21.2068302 C183.292826,20.1462642 182.853818,18.5824906 182.853818,17.053717 M177.030347,16.8879623 C177.030347,21.7509811 179.175802,25.7198491 181.62605,28.1658868 C182.569521,29.1082453 182.732165,29.274 183.754975,30.0274906 C186.024066,31.699566 189.514975,33.0883396 192.669355,33.0883396 C194.601256,33.0883396 195.374149,33.0797547 197.26043,32.6075849 C197.832992,32.464283 198.26076,32.3427736 198.790347,32.1400377 C200.229686,31.5879623 200.863074,31.2386226 202.116628,30.4785283 C203.039603,29.9185283 204.098116,28.9424906 204.833983,28.2081509 C207.331835,25.7125849 209.472,21.8110755 209.472,16.8879623 C209.472,13.6032453 208.125223,9.28371698 205.872661,6.77362264 L204.944397,5.70645283 C204.135802,4.65777358 201.588364,2.97909434 200.377785,2.37484906 C196.040595,0.210792453 190.526545,0.220037736 186.178777,2.34645283 C185.375471,2.74003774 184.447207,3.29013208 183.744397,3.81975472 C182.555636,4.71390566 182.644893,4.67560377 181.62605,5.69258491 C180.351339,6.96645283 179.148694,8.69466038 178.42076,10.3825849 C177.670347,12.1200377 177.030347,14.4439057 177.030347,16.8879623" id="Fill-16" fill="#30343D"></path>
                    <path d="M118.36714,13.1269151 C118.46962,13.5693679 118.771769,14.1036132 118.977388,14.511066 C119.110281,14.7732358 119.171769,14.9535189 119.282843,15.2031415 C119.392595,15.4494623 119.514248,15.6535189 119.643174,15.9222925 C119.766149,16.1791792 119.832264,16.3865377 119.946645,16.6170094 L120.944992,18.6932358 L115.622678,18.6932358 C115.865322,18.2336132 116.05243,17.7436132 116.28714,17.2806887 L117.975074,13.8150283 C118.110612,13.4927642 118.111934,13.3124811 118.36714,13.1269151 M103.062017,31.9034245 C103.062017,32.3703113 103.425653,32.7335189 103.893091,32.7335189 C109.897058,32.7335189 108.753917,33.1918208 109.88119,30.904934 L112.763174,24.8941792 C112.878876,24.6320094 112.853091,24.4253113 113.126149,24.4253113 L123.440198,24.4253113 C123.725818,24.4253113 124.329455,25.9521038 124.605818,26.5028585 L126.712926,30.8778585 C127.877884,33.1858774 126.729455,32.7335189 132.673917,32.7335189 C133.134083,32.7335189 133.505653,32.2554057 133.505653,31.820217 C133.505653,31.5369151 132.775074,30.1369151 132.617719,29.7988019 C132.447802,29.4309717 132.344,29.1628585 132.174744,28.8293679 L128.459702,20.9094623 C128.277223,20.5165377 128.179372,20.2642736 127.987636,19.8845566 L127.073917,17.8895566 C126.760529,17.2166321 126.442512,16.5971981 126.129785,15.9236132 C125.959207,15.5564434 125.854744,15.2870094 125.68681,14.9548396 L124.759868,12.9723868 C124.273917,11.7724811 122.624992,8.4455 121.970446,7.03427358 L119.64119,2.05040566 C119.027636,0.826066038 119.179702,0.415311321 118.117223,0.415311321 C117.514909,0.415311321 117.213421,1.30814151 116.86962,2.07814151 L115.511603,5.04059434 C115.335074,5.42031132 115.187636,5.65672642 115.027636,6.05229245 C114.892099,6.3864434 114.730116,6.65521698 114.567471,7.00587736 L111.796562,12.9605 C111.620694,13.3058774 111.504992,13.6116321 111.325157,13.9867264 L107.608793,21.9059717 C107.42962,22.2586132 107.337719,22.5188019 107.165818,22.876066 C106.978711,23.2650283 106.861025,23.4704057 106.686479,23.8923868 C106.536397,24.254934 106.367802,24.5177642 106.223669,24.8420094 C106.055074,25.2204057 105.940033,25.4865377 105.74962,25.864934 C105.045488,27.2715377 104.187967,29.3418208 103.449455,30.7959717 C103.281521,31.1261604 103.062017,31.4576698 103.062017,31.9034245" id="Fill-18" fill="#30343D"></path>
                    <path d="M0,16.6384057 C0,20.6369906 1.36991736,24.9142547 3.97157025,27.7096321 C4.93355372,28.7424623 5.27735537,29.1888774 6.60628099,30.1464245 C9.14380165,31.9756698 12.698843,33.0884057 15.8869421,33.0884057 C19.2066116,33.0884057 22.1950413,32.7872736 24.9831405,31.1244434 C25.2647934,30.9567075 25.5365289,30.6661415 25.5365289,30.2639717 L25.5365289,25.2794434 C25.5365289,24.759066 25.0757025,24.4486887 24.538843,24.4486887 C24.1619835,24.4486887 23.3884298,25.1645377 22.9355372,25.5059528 C21.4604959,26.614066 18.8819835,27.3556698 16.8026446,27.3556698 C13.1953719,27.3556698 10.0945455,25.9068019 7.99669421,23.1081226 L6.98710744,21.4571792 C5.7831405,18.7522736 5.78512397,15.433217 6.96264463,12.7091604 C9.68727273,6.40783962 18.686281,4.57463208 23.6866116,9.0975566 C24.8694215,10.1673679 25.5365289,9.1675566 25.5365289,8.66236792 L25.5365289,3.67717925 C25.5365289,2.64104717 23.0254545,1.76868868 22.2571901,1.55208491 C19.3527273,0.731235849 18.6115702,0.770198113 15.7203306,0.770198113 C12.8383471,0.770198113 9.11735537,1.96085849 6.80793388,3.66463208 C2.62942149,6.74595283 0,11.0846321 0,16.6384057" id="Fill-20" fill="#30343D"></path>
                    <path d="M31.0220826,1.60062264 L31.0220826,32.0922264 C31.0220826,32.6277925 31.3334876,33.0887358 31.8544793,33.0887358 L36.3463802,33.0887358 C36.7642314,33.0887358 37.1774545,32.676 37.1774545,32.2579811 L37.1774545,1.60062264 C37.1774545,1.18260377 36.7642314,0.769867925 36.3463802,0.769867925 L31.8544793,0.769867925 C31.4359669,0.769867925 31.0220826,1.18260377 31.0220826,1.60062264" id="Fill-22" fill="#30343D"></path>
                </g>
            </g>
        </g>
    </g>
</svg>